<svg width="22" height="22" viewBox="0 0 22 22" fill="none" xmlns="http://www.w3.org/2000/svg">
<path d="M1.00368 20.1666L2.24301 15.6126C1.42639 14.2128 0.99735 12.6206 1.00001 11C1.00001 5.93723 5.10393 1.83331 10.1667 1.83331C15.2294 1.83331 19.3333 5.93723 19.3333 11C19.3333 16.0627 15.2294 20.1666 10.1667 20.1666C8.54673 20.1693 6.95528 19.7406 5.55585 18.9246L1.00368 20.1666ZM6.85843 6.69898C6.74005 6.70633 6.62438 6.73751 6.51835 6.79065C6.41891 6.84696 6.32813 6.91735 6.24885 6.99965C6.13885 7.10323 6.07651 7.19306 6.0096 7.28015C5.67081 7.72106 5.48857 8.26228 5.49168 8.81831C5.49351 9.26748 5.61085 9.70473 5.79418 10.1136C6.1691 10.9404 6.78601 11.8158 7.60093 12.6271C7.7971 12.8223 7.98868 13.0185 8.19493 13.2009C9.20637 14.0914 10.4117 14.7336 11.7149 15.0764L12.2365 15.1561C12.4061 15.1653 12.5757 15.1525 12.7462 15.1442C13.0131 15.1304 13.2738 15.0582 13.5098 14.9325C13.6298 14.8706 13.747 14.8034 13.8608 14.7308C13.8608 14.7308 13.9003 14.7051 13.9754 14.6483C14.0992 14.5566 14.1753 14.4916 14.2779 14.3843C14.354 14.3055 14.42 14.2129 14.4704 14.1075C14.5419 13.9581 14.6134 13.673 14.6428 13.4356C14.6648 13.2541 14.6583 13.1551 14.6556 13.0936C14.6519 12.9956 14.5703 12.8938 14.4814 12.8507L13.9479 12.6115C13.9479 12.6115 13.1504 12.2641 12.6637 12.0422C12.6124 12.0199 12.5574 12.0071 12.5014 12.0046C12.4387 11.9982 12.3753 12.0053 12.3156 12.0253C12.2558 12.0454 12.201 12.0781 12.1549 12.1211V12.1192C12.1503 12.1192 12.0889 12.1715 11.4262 12.9745C11.3881 13.0256 11.3357 13.0642 11.2757 13.0854C11.2156 13.1067 11.1506 13.1095 11.0888 13.0936C11.0291 13.0777 10.9706 13.0575 10.9138 13.0331C10.8001 12.9855 10.7607 12.9671 10.6828 12.9332L10.6782 12.9314C10.1538 12.7024 9.66822 12.3932 9.23901 12.0147C9.12351 11.9139 9.01626 11.8039 8.90626 11.6976C8.54563 11.3522 8.23133 10.9615 7.97126 10.5352L7.91718 10.4481C7.87833 10.3896 7.84693 10.3265 7.82368 10.2602C7.78885 10.1255 7.8796 10.0173 7.8796 10.0173C7.8796 10.0173 8.10235 9.77348 8.20593 9.64148C8.29218 9.53177 8.37265 9.41765 8.44701 9.29956C8.55518 9.1254 8.5891 8.94665 8.53226 8.80823C8.2756 8.18123 8.00976 7.55698 7.7366 6.93731C7.68251 6.81448 7.5221 6.72648 7.37635 6.70906C7.32685 6.70356 7.27735 6.69806 7.22785 6.6944C7.10474 6.68828 6.98139 6.68951 6.85843 6.69806V6.69898Z" fill="#DC5B1B"/>
</svg>
