<svg width="37" height="39" viewBox="0 0 37 39" fill="none" xmlns="http://www.w3.org/2000/svg">
<path d="M3.05274 34.935L5.11232 27.0479C3.75522 24.6234 3.04223 21.866 3.04665 19.0592C3.04665 10.291 9.8667 3.18335 18.2802 3.18335C26.6937 3.18335 33.5137 10.291 33.5137 19.0592C33.5137 27.8274 26.6937 34.935 18.2802 34.935C15.5881 34.9395 12.9434 34.197 10.6177 32.7838L3.05274 34.935ZM12.7824 11.6102C12.5857 11.623 12.3934 11.677 12.2172 11.769C12.052 11.8665 11.9011 11.9884 11.7694 12.131C11.5866 12.3104 11.483 12.4659 11.3718 12.6168C10.8088 13.3804 10.5059 14.3177 10.5111 15.2807C10.5141 16.0586 10.7091 16.8159 11.0138 17.524C11.6368 18.956 12.6621 20.4721 14.0163 21.8771C14.3423 22.2153 14.6607 22.555 15.0034 22.8709C16.6843 24.4132 18.6873 25.5254 20.8531 26.1191L21.7199 26.2573C22.0017 26.2731 22.2836 26.2509 22.5669 26.2366C23.0106 26.2128 23.4438 26.0876 23.8359 25.8699C24.0353 25.7628 24.23 25.6463 24.4193 25.5206C24.4193 25.5206 24.4848 25.4762 24.6097 25.3777C24.8154 25.219 24.9418 25.1063 25.1124 24.9205C25.2389 24.784 25.3485 24.6236 25.4323 24.4411C25.5511 24.1823 25.67 23.6886 25.7187 23.2774C25.7553 22.963 25.7446 22.7916 25.74 22.6852C25.7339 22.5153 25.5984 22.3391 25.4506 22.2645L24.564 21.8501C24.564 21.8501 23.2387 21.2484 22.4298 20.8642C22.3445 20.8255 22.2531 20.8034 22.1602 20.7992C22.0559 20.788 21.9506 20.8002 21.8513 20.835C21.752 20.8698 21.661 20.9263 21.5843 21.0008V20.9976C21.5767 20.9976 21.4747 21.0881 20.3733 22.4788C20.3101 22.5673 20.223 22.6342 20.1231 22.671C20.0233 22.7078 19.9152 22.7127 19.8127 22.6852C19.7134 22.6575 19.6162 22.6225 19.5217 22.5804C19.3328 22.4979 19.2673 22.4661 19.1378 22.4074L19.1302 22.4042C18.2587 22.0077 17.4518 21.472 16.7385 20.8166C16.5466 20.642 16.3684 20.4515 16.1856 20.2673C15.5863 19.6692 15.0639 18.9925 14.6318 18.2543L14.5419 18.1034C14.4773 18.0021 14.4251 17.8928 14.3865 17.778C14.3286 17.5446 14.4794 17.3573 14.4794 17.3573C14.4794 17.3573 14.8496 16.935 15.0217 16.7064C15.1651 16.5164 15.2988 16.3187 15.4224 16.1142C15.6021 15.8126 15.6585 15.503 15.564 15.2633C15.1375 14.1774 14.6957 13.0962 14.2418 12.023C14.1519 11.8103 13.8853 11.6579 13.6431 11.6277C13.5608 11.6182 13.4786 11.6086 13.3963 11.6023C13.1917 11.5917 12.9867 11.5938 12.7824 11.6086V11.6102Z" fill="white"/>
</svg>
