<svg width="25" height="25" viewBox="0 0 25 25" fill="none" xmlns="http://www.w3.org/2000/svg">
<path d="M11.0417 17.2916L18.3855 9.9479L16.9271 8.48956L11.0417 14.375L8.07296 11.4062L6.61462 12.8646L11.0417 17.2916ZM12.5 22.9166C11.0591 22.9166 9.7049 22.643 8.43754 22.0958C7.17018 21.5493 6.06775 20.8073 5.13025 19.8698C4.19275 18.9323 3.45074 17.8298 2.90421 16.5625C2.35699 15.2951 2.08337 13.941 2.08337 12.5C2.08337 11.059 2.35699 9.70484 2.90421 8.43748C3.45074 7.17012 4.19275 6.06769 5.13025 5.13019C6.06775 4.19269 7.17018 3.45033 8.43754 2.9031C9.7049 2.35658 11.0591 2.08331 12.5 2.08331C13.941 2.08331 15.2952 2.35658 16.5625 2.9031C17.8299 3.45033 18.9323 4.19269 19.8698 5.13019C20.8073 6.06769 21.5493 7.17012 22.0959 8.43748C22.6431 9.70484 22.9167 11.059 22.9167 12.5C22.9167 13.941 22.6431 15.2951 22.0959 16.5625C21.5493 17.8298 20.8073 18.9323 19.8698 19.8698C18.9323 20.8073 17.8299 21.5493 16.5625 22.0958C15.2952 22.643 13.941 22.9166 12.5 22.9166Z" fill="#5EA608"/>
</svg>
