<svg width="18" height="19" viewBox="0 0 18 19" fill="none" xmlns="http://www.w3.org/2000/svg">
<path d="M8.923 4.74568C8.01835 4.74568 7.13401 5.01394 6.38182 5.51654C5.62963 6.01914 5.04337 6.7335 4.69718 7.56929C4.35098 8.40508 4.2604 9.32476 4.43689 10.212C4.61338 11.0993 5.04901 11.9143 5.68869 12.554C6.32838 13.1937 7.14339 13.6293 8.03066 13.8058C8.91793 13.9823 9.8376 13.8917 10.6734 13.5455C11.5092 13.1993 12.2235 12.6131 12.7261 11.8609C13.2287 11.1087 13.497 10.2243 13.497 9.31968C13.4981 8.71872 13.3805 8.12346 13.151 7.56804C12.9215 7.01262 12.5846 6.50797 12.1597 6.08303C11.7347 5.65808 11.2301 5.3212 10.6746 5.09171C10.1192 4.86222 9.52396 4.74463 8.923 4.74568ZM8.923 12.2927C8.335 12.2927 7.7602 12.1183 7.27129 11.7916C6.78238 11.465 6.40133 11.0006 6.17631 10.4574C5.95129 9.91416 5.89241 9.31639 6.00713 8.73968C6.12184 8.16297 6.40499 7.63324 6.82077 7.21746C7.23655 6.80167 7.76629 6.51852 8.343 6.40381C8.9197 6.28909 9.51747 6.34797 10.0607 6.57299C10.604 6.79801 11.0683 7.17906 11.395 7.66797C11.7216 8.15688 11.896 8.73168 11.896 9.31968C11.8944 10.1077 11.5807 10.863 11.0235 11.4202C10.4663 11.9774 9.711 12.2911 8.923 12.2927ZM14.75 4.55868C14.75 4.76972 14.6874 4.97601 14.5702 5.15148C14.4529 5.32694 14.2863 5.4637 14.0913 5.54446C13.8964 5.62522 13.6818 5.64635 13.4748 5.60518C13.2679 5.56401 13.0777 5.46239 12.9285 5.31317C12.7793 5.16394 12.6777 4.97382 12.6365 4.76684C12.5953 4.55987 12.6165 4.34533 12.6972 4.15036C12.778 3.95539 12.9147 3.78875 13.0902 3.6715C13.2657 3.55426 13.472 3.49168 13.683 3.49168C13.8233 3.49115 13.9623 3.51838 14.0921 3.57181C14.2218 3.62523 14.3397 3.70379 14.439 3.80296C14.5383 3.90213 14.6169 4.01996 14.6705 4.14966C14.724 4.27936 14.7514 4.41837 14.751 4.55868H14.75ZM17.775 5.64068C17.8045 4.25375 17.2868 2.91094 16.334 1.90268C15.3237 0.953087 13.9823 0.435966 12.596 0.461682C11.123 0.377682 6.709 0.377682 5.236 0.461682C3.85013 0.434034 2.50847 0.949813 1.498 1.89868C0.549305 2.90912 0.034171 4.25098 0.063 5.63668C-0.021 7.10968 -0.021 11.5237 0.063 12.9967C0.0335268 14.3836 0.551177 15.7264 1.504 16.7347C2.51461 17.683 3.85534 18.1997 5.241 18.1747C6.714 18.2587 11.128 18.2587 12.601 18.1747C13.9879 18.2042 15.3307 17.6865 16.339 16.7337C17.2865 15.7228 17.8018 14.3819 17.775 12.9967C17.863 11.5237 17.863 7.11368 17.775 5.64068ZM15.875 14.5747C15.7237 14.9596 15.4946 15.3093 15.2021 15.6018C14.9096 15.8943 14.56 16.1233 14.175 16.2747C13.001 16.7407 10.214 16.6327 8.917 16.6327C7.62 16.6327 4.829 16.7327 3.659 16.2747C3.27403 16.1233 2.9244 15.8943 2.6319 15.6018C2.33941 15.3093 2.11034 14.9596 1.959 14.5747C1.493 13.4007 1.601 10.6137 1.601 9.31668C1.601 8.01968 1.501 5.22868 1.959 4.05868C2.11034 3.67372 2.33941 3.32408 2.6319 3.03158C2.9244 2.73909 3.27403 2.51003 3.659 2.35868C4.833 1.89268 7.62 2.00068 8.917 2.00068C10.214 2.00068 13.005 1.90068 14.175 2.35868C14.56 2.51003 14.9096 2.73909 15.2021 3.03158C15.4946 3.32408 15.7237 3.67372 15.875 4.05868C16.341 5.23268 16.233 8.01968 16.233 9.31668C16.233 10.6137 16.343 13.4067 15.875 14.5747Z" fill="#DC5B1B"/>
</svg>
