<?xml version="1.0" encoding="utf-8"?>
<!-- Generator: Adobe Illustrator 26.5.1, SVG Export Plug-In . SVG Version: 6.00 Build 0)  -->
<svg version="1.1" id="Capa_1" xmlns="http://www.w3.org/2000/svg" xmlns:xlink="http://www.w3.org/1999/xlink" x="0px" y="0px"
	 viewBox="0 0 216.8 55" style="enable-background:new 0 0 216.8 55;" xml:space="preserve">
<style type="text/css">
	.st0{fill:none;}
	.st1{fill:#61A60E;}
	.st2{fill:#E25A1D;}
</style>
<g>
	<g>
		<g>
			<path class="st0" d="M39.7,28c-0.1,0-0.3,0-0.4,0c-0.1,0-0.2,0-0.3,0c-0.2,0-0.4-0.1-0.5-0.1h-0.1c-1.5-0.3-2.7-1-3.7-2
				c-1.3,1.2-3.3,2.1-5.5,2.1s-4.2-0.9-5.5-2.2c-1.3,1.3-3.3,2.2-5.5,2.2s-4.2-0.9-5.5-2.2c-1.1,1.1-2.6,1.9-4.4,2.2
				c-0.1,0-0.2,0-0.3,0v20.9h31.9V28.1C39.9,28.1,39.8,28,39.7,28z"/>
			<path class="st0" d="M8.5,24.9L8.5,24.9c1.4-0.5,2.4-1.6,2.5-2.9l0,0c0-0.1,0-0.1,0-0.2c0-0.8,0.7-1.5,1.7-1.5s1.7,0.6,1.7,1.5
				V22c0.1,1.3,1.1,2.4,2.4,2.8c0,0,0,0,0.1,0c0.2,0,0.4,0.1,0.6,0.1S18,25,18.2,25s0.5,0,0.7-0.1c0.2,0,0.4-0.1,0.6-0.1
				c0,0,0,0,0.1,0c1.3-0.5,2.3-1.5,2.4-2.8l0,0c0-0.1,0-0.1,0-0.2c0-0.8,0.7-1.5,1.7-1.5c0.9,0,1.7,0.6,1.7,1.5c0,0.1,0,0.1,0,0.2
				v0.1c0.1,1.3,1.1,2.4,2.4,2.8c0,0,0,0,0.1,0c0.2,0,0.4,0.1,0.6,0.1c0.2,0,0.5,0.1,0.7,0.1s0.5,0,0.7-0.1c0.2,0,0.4-0.1,0.6-0.1
				c0,0,0,0,0.1,0c1.3-0.5,2.3-1.5,2.4-2.8l0,0c0-0.1,0-0.1,0-0.2c0-0.8,0.7-1.5,1.7-1.5c0.9,0,1.7,0.6,1.7,1.5v0.2
				c0.1,1.3,1.1,2.4,2.4,2.8c0,0,0,0,0.1,0c0.2,0,0.4,0.1,0.6,0.1c0.2,0,0.5,0.1,0.7,0.1s0.4,0,0.5,0c0.2,0,0.3-0.1,0.5-0.1l0,0l0,0
				c1.6-0.4,2.8-1.7,2.8-3.2c0-0.3,0-0.6-0.2-0.9v-0.1l-0.1-0.2v-0.1L39,8.9H8.4L3.5,20.7v0.1c-0.1,0.4-0.2,0.6-0.2,0.9
				c0,1.7,1.4,3,3.2,3.3h0.1c0.1,0,0.1,0,0.2,0c0.1,0,0.3,0,0.4,0c0.2,0,0.5,0,0.7-0.1C8.1,25,8.3,25,8.5,24.9z"/>
			<path class="st0" d="M41.3,25C41.3,25,41.2,25,41.3,25"/>
			<path class="st1" d="M8,28c0.1,0,0.2,0,0.3,0c1.8-0.2,3.3-1,4.4-2.2C14,27.2,16,28,18.2,28s4.2-0.9,5.5-2.2
				C25,27.2,27,28,29.2,28s4.2-0.9,5.5-2.2c0.9,1,2.2,1.7,3.7,2h0.1c0.2,0,0.3,0.1,0.5,0.1c0.1,0,0.2,0,0.3,0s0.3,0,0.4,0
				c0.1,0,0.2,0,0.3,0v20.9h2.7c0.2,0,0.5,0,0.7,0.1V27.4c2.4-1,4.1-3.2,4.1-5.6c0-0.4-0.1-0.9-0.2-1.4c0-0.3-0.1-0.5-0.2-0.7
				L47,19.4v-0.1L41.7,7c-0.2-0.6-0.9-1-1.6-1H7.2C6.5,6,5.9,6.4,5.6,7L0.5,19.3c0,0.1,0,0.1-0.1,0.2L0.3,20c0,0.1-0.1,0.2-0.1,0.4
				C0,20.9,0,21.4,0,21.9c0,2.7,2,5,4.7,5.9V49H8V28z M6.8,25.1c0,0-0.1,0-0.2,0H6.5c-1.8-0.3-3.2-1.6-3.2-3.3c0-0.3,0-0.6,0.2-0.9
				v-0.1L8.4,9H39l4.8,11.5v0.1l0.1,0.2v0.1c0.1,0.4,0.2,0.6,0.2,0.9c0,1.5-1.2,2.8-2.8,3.2c-0.2,0-0.4,0.1-0.5,0.1
				c-0.2,0-0.4,0-0.5,0c-0.2,0-0.5,0-0.7-0.1c-0.2,0-0.4-0.1-0.6-0.1c0,0,0,0-0.1,0c-1.3-0.5-2.3-1.6-2.4-2.8v-0.2
				c0-0.8-0.7-1.5-1.7-1.5c-0.9,0-1.7,0.6-1.7,1.5c0,0.1,0,0.1,0,0.2l0,0c-0.1,1.3-1.1,2.4-2.4,2.8c0,0,0,0-0.1,0
				C30.4,25,30.2,25,30,25.1c-0.2,0-0.5,0.1-0.7,0.1s-0.5,0-0.7-0.1c-0.2,0-0.4-0.1-0.6-0.1c0,0,0,0-0.1,0c-1.3-0.5-2.3-1.6-2.4-2.8
				V22c0-0.1,0-0.1,0-0.2c0-0.8-0.7-1.5-1.7-1.5c-0.9,0-1.7,0.6-1.7,1.5c0,0.1,0,0.1,0,0.2l0,0c-0.1,1.3-1.1,2.4-2.4,2.8
				c0,0,0,0-0.1,0c-0.2,0.1-0.4,0.1-0.6,0.1S18.5,25,18.3,25s-0.5,0-0.7-0.1c-0.2,0-0.4-0.1-0.6-0.1c0,0,0,0-0.1,0
				c-1.3-0.5-2.3-1.6-2.4-2.8v-0.2c0-0.8-0.7-1.5-1.7-1.5s-1.7,0.6-1.7,1.5c0,0.1,0,0.1,0,0.2l0,0c-0.1,1.3-1.1,2.4-2.4,2.8
				c0,0,0,0-0.1,0c-0.2,0.1-0.4,0.1-0.6,0.1c-0.2,0-0.5,0.1-0.7,0.1C7.1,25.2,6.9,25.1,6.8,25.1z"/>
		</g>
		<g>
			<g>
				<path class="st1" d="M32.7,36.1c1-1,1.5-3.4,1.7-4.4c0-0.1,0-0.2-0.1-0.3c-0.1-0.1-0.2-0.1-0.3-0.1c-1,0.2-3.5,0.8-4.4,1.7
					c-1.2,1.2-1.5,2.9-0.7,3.8C29.8,37.7,31.5,37.4,32.7,36.1L32.7,36.1z"/>
				<path class="st1" d="M35.8,38.7c-0.1-0.1-0.2-0.1-0.3-0.1c-1.2,0.2-4.4,0.9-5.6,2.2c-1.5,1.5-1.9,3.6-0.8,4.7
					c1.1,1.1,3.1,0.7,4.7-0.8c1.2-1.2,1.9-4.4,2.2-5.6C35.9,38.8,35.9,38.7,35.8,38.7L35.8,38.7z"/>
				<path class="st1" d="M13.3,31.3c-0.1,0-0.2,0-0.3,0.1c-0.1,0.1-0.1,0.2-0.1,0.3c0.2,1,0.8,3.5,1.7,4.4c1.2,1.2,2.9,1.5,3.8,0.7
					c0.8-0.8,0.5-2.5-0.7-3.8C16.8,32.1,14.3,31.5,13.3,31.3L13.3,31.3z"/>
				<path class="st1" d="M11.9,38.6c-0.1,0-0.2,0-0.3,0.1c-0.1,0.1-0.1,0.2-0.1,0.3c0.2,1.2,0.9,4.4,2.2,5.6
					c1.5,1.5,3.6,1.9,4.7,0.8c1.1-1.1,0.7-3.1-0.8-4.7C16.2,39.5,13,38.8,11.9,38.6L11.9,38.6z"/>
			</g>
		</g>
		<g>
			<path class="st2" d="M24.3,41.9c-0.1-0.8,0.4-1.5,1.3-1.9c1.1-0.4,1.9-1.4,1.9-3.1v-5.6c0-0.2-0.2-0.4-0.5-0.4s-0.6,0.2-0.6,0.4
				v5.2c0,0.2-0.2,0.4-0.6,0.4c-0.3,0-0.6-0.2-0.6-0.4v-5.2c0-0.2-0.2-0.4-0.6-0.4l0,0c-0.3,0-0.6,0.2-0.6,0.4v5.2
				c0,0.2-0.2,0.4-0.6,0.4c-0.3,0-0.6-0.2-0.6-0.4v-5.2c0-0.2-0.2-0.4-0.6-0.4l0,0c-0.3,0-0.6,0.2-0.6,0.4v5.2
				c0,0.2-0.2,0.4-0.6,0.4c-0.3,0-0.6-0.2-0.6-0.4v-5.2c0-0.2-0.2-0.4-0.6-0.4c-0.3,0-0.5,0.2-0.5,0.4v5.6c0,1.7,0.8,2.7,1.9,3.1
				c0.9,0.4,1.4,1.1,1.3,1.9l-0.9,7h3.6L24.3,41.9z"/>
		</g>
	</g>
	<g>
		<g>
			<g>
				<path class="st2" d="M56.8,22c0-1.2,0.2-2.3,0.6-3.3s1-1.9,1.7-2.7c0.7-0.8,1.6-1.3,2.6-1.8c1-0.4,2.1-0.7,3.3-0.7
					c1.2,0,2.3,0.2,3.3,0.7c1,0.4,1.9,1,2.7,1.8c0.8,0.8,1.3,1.6,1.8,2.7c0.4,1,0.6,2.1,0.6,3.3c0,1.2-0.2,2.3-0.6,3.3
					s-1,1.9-1.8,2.7c-0.8,0.8-1.6,1.4-2.7,1.8s-2.1,0.7-3.3,0.7c-1.2,0-2.2-0.2-3.3-0.7c-1-0.4-1.9-1-2.6-1.8s-1.3-1.7-1.7-2.7
					S56.8,23.2,56.8,22z M59.7,22.1c0,0.8,0.1,1.5,0.4,2.1c0.3,0.7,0.7,1.3,1.1,1.7c0.5,0.5,1,0.9,1.7,1.2c0.7,0.3,1.4,0.4,2.1,0.4
					c0.8,0,1.5-0.1,2.1-0.4c0.7-0.3,1.3-0.7,1.7-1.2c0.5-0.5,0.9-1.1,1.2-1.7c0.3-0.7,0.4-1.4,0.4-2.1c0-0.8-0.1-1.5-0.4-2.1
					c-0.3-0.7-0.7-1.3-1.2-1.8s-1.1-0.9-1.7-1.2c-0.7-0.3-1.4-0.4-2.1-0.4c-0.8,0-1.5,0.1-2.1,0.4c-0.7,0.3-1.2,0.7-1.7,1.2
					s-0.9,1.1-1.1,1.8C59.8,20.6,59.7,21.3,59.7,22.1z"/>
				<path class="st2" d="M77,30.4h-2.1c-0.3,0-0.4-0.1-0.4-0.4V19.3c0-0.1,0-0.2,0.1-0.3c0.1-0.1,0.2-0.1,0.3-0.1H77
					c0.1,0,0.2,0,0.3,0.1c0.1,0.1,0.1,0.2,0.1,0.3v0.4c0.4-0.2,0.9-0.4,1.4-0.6c0.5-0.1,1-0.2,1.5-0.2c0.2,0,0.4,0.2,0.4,0.4v2.1
					c0,0.3-0.2,0.4-0.4,0.4c-0.4,0-0.7,0.1-1.1,0.2c-0.3,0.1-0.6,0.3-0.9,0.6c-0.3,0.3-0.5,0.6-0.6,0.9c-0.2,0.3-0.2,0.7-0.2,1.1V30
					C77.4,30.3,77.2,30.4,77,30.4z"/>
				<path class="st2" d="M92.1,18.9c0.2,0,0.4,0.1,0.4,0.4v10.4c0,0.8-0.2,1.6-0.5,2.4c-0.3,0.7-0.7,1.4-1.2,1.9s-1.1,1-1.8,1.3
					c-0.7,0.3-1.5,0.5-2.3,0.5s-1.6-0.2-2.4-0.5c-0.7-0.3-1.4-0.8-1.9-1.4c-0.1-0.2-0.1-0.4,0-0.5l1.6-1.5c0.2-0.2,0.4-0.2,0.5,0
					c0.3,0.3,0.6,0.5,1,0.7s0.8,0.3,1.2,0.3c0.4,0,0.8-0.1,1.1-0.2c0.4-0.2,0.7-0.4,0.9-0.6c0.3-0.3,0.5-0.6,0.6-0.9
					c0.2-0.4,0.2-0.7,0.2-1.1V30c-0.9,0.5-1.9,0.8-2.9,0.8c-0.8,0-1.5-0.2-2.2-0.5s-1.3-0.7-1.8-1.2s-0.9-1.1-1.2-1.8
					c-0.3-0.7-0.5-1.5-0.5-2.3s0.2-1.6,0.5-2.3c0.3-0.7,0.7-1.3,1.2-1.9c0.5-0.5,1.1-0.9,1.8-1.2c0.7-0.3,1.4-0.5,2.2-0.5
					c1.1,0,2,0.3,2.9,0.8v-0.4c0-0.2,0.1-0.4,0.4-0.4h2.2V18.9z M83.9,24.7c0,0.8,0.3,1.5,0.8,2.1c0.6,0.6,1.2,0.9,2,0.9
					c0.4,0,0.7-0.1,1.1-0.2c0.3-0.2,0.6-0.4,0.9-0.6c0.3-0.3,0.5-0.5,0.6-0.9c0.2-0.3,0.3-0.7,0.3-1.1v-0.2c0-0.4-0.1-0.7-0.3-1.1
					c-0.2-0.4-0.4-0.7-0.6-0.9c-0.3-0.3-0.6-0.5-0.9-0.6c-0.3-0.2-0.7-0.2-1.1-0.2s-0.8,0.1-1.1,0.2c-0.4,0.2-0.7,0.4-0.9,0.6
					c-0.3,0.3-0.5,0.6-0.6,1S83.9,24.3,83.9,24.7z"/>
				<path class="st2" d="M104.7,30.4h-2.2c-0.2,0-0.4-0.1-0.4-0.4v-0.3c-0.9,0.5-1.9,0.8-2.9,0.8c-0.8,0-1.5-0.2-2.2-0.5
					s-1.3-0.7-1.8-1.2S94.3,27.7,94,27c-0.3-0.7-0.5-1.5-0.5-2.3s0.2-1.6,0.5-2.3c0.3-0.7,0.7-1.3,1.2-1.9c0.5-0.5,1.1-0.9,1.8-1.2
					c0.7-0.3,1.4-0.5,2.2-0.5c1.1,0,2,0.3,2.9,0.8v-0.4c0-0.1,0-0.2,0.1-0.3c0.1-0.1,0.2-0.1,0.3-0.1h2.2c0.1,0,0.2,0,0.3,0.1
					c0.1,0.1,0.1,0.2,0.1,0.3V30C105.1,30.3,105,30.4,104.7,30.4z M96.1,16.6c-0.2-0.2-0.1-0.4,0.1-0.5l5-3.7c0.1,0,0.2-0.1,0.3-0.1
					c0.1,0,0.2,0.1,0.2,0.2l1.2,1.8c0,0.1,0,0.2,0,0.3s-0.1,0.2-0.2,0.2l-5.3,3.1C97.3,18,97.2,18,97.1,18c-0.1,0-0.2-0.1-0.2-0.2
					L96.1,16.6z M96.4,24.7c0,0.8,0.3,1.5,0.8,2.1s1.2,0.9,2,0.9c0.4,0,0.7-0.1,1.1-0.2c0.3-0.2,0.6-0.4,0.9-0.6
					c0.3-0.3,0.5-0.5,0.6-0.9c0.2-0.3,0.3-0.7,0.3-1.1v-0.1c0-0.4-0.1-0.8-0.2-1.1c-0.2-0.4-0.4-0.7-0.6-1c-0.3-0.3-0.6-0.5-0.9-0.6
					c-0.4-0.2-0.7-0.2-1.1-0.2s-0.8,0.1-1.1,0.2c-0.4,0.2-0.7,0.4-0.9,0.6c-0.3,0.3-0.5,0.6-0.6,1S96.4,24.3,96.4,24.7z"/>
				<path class="st2" d="M109,30.4h-2.1c-0.3,0-0.4-0.1-0.4-0.4v-5.4v-0.2v-5.2c0-0.1,0-0.2,0.1-0.3c0.1-0.1,0.2-0.1,0.3-0.1h2.1
					c0.1,0,0.2,0,0.3,0.1c0.1,0.1,0.1,0.2,0.1,0.3v0.3c0.9-0.5,1.8-0.7,2.9-0.7c0.8,0,1.6,0.2,2.3,0.5c0.7,0.3,1.3,0.7,1.8,1.2
					s0.9,1.2,1.2,1.9c0.3,0.7,0.5,1.5,0.5,2.3v5.4c0,0.2,0,0.3-0.1,0.3s-0.2,0.1-0.3,0.1h-2.2c-0.2,0-0.3-0.1-0.4-0.3v-5.5
					c0-0.4-0.1-0.8-0.2-1.1c-0.2-0.4-0.4-0.7-0.6-0.9c-0.3-0.3-0.6-0.5-0.9-0.6c-0.4-0.2-0.7-0.2-1.1-0.2s-0.7,0.1-1.1,0.2
					c-0.3,0.2-0.6,0.4-0.9,0.6c-0.3,0.3-0.5,0.6-0.6,0.9c-0.2,0.4-0.2,0.7-0.2,1.1v5.5C109.4,30.3,109.3,30.4,109,30.4z"/>
				<path class="st2" d="M122.4,17.7h-2.2c-0.2,0-0.4-0.1-0.4-0.4v-2c0-0.1,0-0.2,0.1-0.3s0.2-0.1,0.3-0.1h2.2c0.1,0,0.2,0,0.3,0.1
					s0.1,0.2,0.1,0.3v2C122.8,17.6,122.6,17.7,122.4,17.7z M122.4,30.4h-2.2c-0.2,0-0.4-0.1-0.4-0.4V19.3c0-0.1,0-0.2,0.1-0.3
					c0.1-0.1,0.2-0.1,0.3-0.1h2.2c0.1,0,0.2,0,0.3,0.1s0.1,0.2,0.1,0.3v10.8C122.8,30.3,122.6,30.4,122.4,30.4z"/>
				<path class="st2" d="M124.2,24.7c0-0.8,0.2-1.6,0.5-2.3c0.3-0.7,0.7-1.3,1.2-1.9c0.5-0.5,1.1-0.9,1.8-1.2
					c0.7-0.3,1.4-0.5,2.2-0.5s1.6,0.2,2.4,0.5c0.7,0.3,1.4,0.8,1.9,1.4c0.1,0.2,0.1,0.4,0,0.5l-1.6,1.5c-0.2,0.2-0.4,0.2-0.5,0
					l-0.2-0.2c-0.3-0.2-0.6-0.4-0.9-0.5c-0.3-0.1-0.7-0.2-1-0.2c-0.4,0-0.8,0.1-1.1,0.2c-0.4,0.2-0.7,0.4-0.9,0.6s-0.5,0.6-0.6,1
					c-0.2,0.4-0.2,0.7-0.2,1.2c0,0.4,0.1,0.8,0.2,1.2c0.2,0.4,0.3,0.7,0.6,1s0.6,0.5,0.9,0.6c0.4,0.2,0.7,0.2,1.1,0.2
					c0.4,0,0.8-0.1,1.2-0.3c0.4-0.2,0.7-0.4,1-0.7c0.2-0.2,0.3-0.2,0.5,0l1.6,1.5c0.1,0.2,0.1,0.3,0,0.5c-0.5,0.6-1.2,1-1.9,1.4
					c-0.7,0.3-1.5,0.5-2.4,0.5c-0.8,0-1.5-0.2-2.2-0.5s-1.3-0.7-1.8-1.2s-0.9-1.1-1.2-1.8C124.3,26.3,124.2,25.5,124.2,24.7z"/>
				<path class="st2" d="M135,24.7c0-0.8,0.2-1.6,0.5-2.3c0.3-0.7,0.7-1.3,1.2-1.9c0.5-0.5,1.1-0.9,1.8-1.2c0.7-0.3,1.4-0.5,2.2-0.5
					s1.6,0.2,2.3,0.5s1.3,0.7,1.8,1.2s0.9,1.2,1.2,1.9c0.3,0.7,0.5,1.5,0.5,2.3s-0.2,1.6-0.5,2.3c-0.3,0.7-0.7,1.3-1.2,1.8
					s-1.1,0.9-1.8,1.2c-0.7,0.3-1.5,0.5-2.3,0.5s-1.6-0.2-2.2-0.5c-0.7-0.3-1.3-0.7-1.8-1.2s-0.9-1.1-1.2-1.8
					C135.2,26.3,135,25.5,135,24.7z M137.9,24.7c0,0.8,0.3,1.5,0.8,2.1s1.2,0.9,2,0.9c0.4,0,0.8-0.1,1.1-0.2
					c0.3-0.2,0.7-0.4,0.9-0.6s0.5-0.6,0.6-0.9c0.2-0.4,0.2-0.7,0.2-1.1s-0.1-0.8-0.2-1.1c-0.2-0.4-0.4-0.7-0.6-1
					c-0.3-0.3-0.6-0.5-0.9-0.6c-0.4-0.2-0.7-0.2-1.1-0.2c-0.4,0-0.8,0.1-1.1,0.2c-0.4,0.2-0.7,0.4-0.9,0.6c-0.3,0.3-0.5,0.6-0.6,1
					C138,23.9,137.9,24.3,137.9,24.7z"/>
				<path class="st2" d="M153.1,24.7c0-0.8,0.2-1.6,0.5-2.3c0.3-0.7,0.7-1.3,1.2-1.9c0.5-0.5,1.1-0.9,1.8-1.2
					c0.7-0.3,1.4-0.5,2.2-0.5s1.6,0.2,2.3,0.5s1.3,0.7,1.8,1.2s0.9,1.2,1.2,1.9c0.3,0.7,0.5,1.5,0.5,2.3s-0.2,1.6-0.5,2.3
					c-0.3,0.7-0.7,1.3-1.2,1.8s-1.1,0.9-1.8,1.2c-0.7,0.3-1.5,0.5-2.3,0.5s-1.6-0.2-2.2-0.5c-0.7-0.3-1.3-0.7-1.8-1.2
					s-0.9-1.1-1.2-1.8C153.2,26.3,153.1,25.5,153.1,24.7z M155.9,24.7c0,0.8,0.3,1.5,0.8,2.1s1.2,0.9,2,0.9c0.4,0,0.8-0.1,1.1-0.2
					c0.3-0.2,0.7-0.4,0.9-0.6s0.5-0.6,0.6-0.9c0.2-0.4,0.2-0.7,0.2-1.1s-0.1-0.8-0.2-1.1c-0.2-0.4-0.4-0.7-0.6-1
					c-0.3-0.3-0.6-0.5-0.9-0.6c-0.4-0.2-0.7-0.2-1.1-0.2s-0.8,0.1-1.1,0.2c-0.4,0.2-0.7,0.4-0.9,0.6c-0.3,0.3-0.5,0.6-0.6,1
					C156,23.9,155.9,24.3,155.9,24.7z"/>
				<path class="st2" d="M168.2,30.4h-2.1c-0.3,0-0.4-0.1-0.4-0.4v-5.4v-0.2v-5.2c0-0.1,0-0.2,0.1-0.3c0.1-0.1,0.2-0.1,0.3-0.1h2.1
					c0.1,0,0.2,0,0.3,0.1s0.1,0.2,0.1,0.3v0.3c0.9-0.5,1.8-0.7,2.9-0.7c0.8,0,1.6,0.2,2.3,0.5s1.3,0.7,1.8,1.2s0.9,1.2,1.2,1.9
					c0.3,0.7,0.5,1.5,0.5,2.3v5.4c0,0.2,0,0.3-0.1,0.3s-0.2,0.1-0.3,0.1h-2.2c-0.2,0-0.3-0.1-0.4-0.3v-5.5c0-0.4-0.1-0.8-0.2-1.1
					c-0.2-0.4-0.4-0.7-0.6-0.9c-0.3-0.3-0.6-0.5-0.9-0.6c-0.4-0.2-0.7-0.2-1.1-0.2c-0.4,0-0.7,0.1-1.1,0.2c-0.3,0.2-0.6,0.4-0.9,0.6
					c-0.3,0.3-0.5,0.6-0.6,0.9c-0.2,0.4-0.2,0.7-0.2,1.1v5.5C168.5,30.3,168.4,30.4,168.2,30.4z"/>
				<path class="st2" d="M181.5,30.4h-2.2c-0.2,0-0.4-0.1-0.4-0.4V14c0-0.1,0-0.2,0.1-0.3s0.2-0.1,0.3-0.1h2.2c0.1,0,0.2,0,0.3,0.1
					s0.1,0.2,0.1,0.3v16C181.9,30.3,181.8,30.4,181.5,30.4z"/>
				<path class="st2" d="M186.6,17.7h-2.2c-0.2,0-0.4-0.1-0.4-0.4v-2c0-0.1,0-0.2,0.1-0.3s0.2-0.1,0.3-0.1h2.2c0.1,0,0.2,0,0.3,0.1
					s0.1,0.2,0.1,0.3v2C187,17.6,186.8,17.7,186.6,17.7z M186.6,30.4h-2.2c-0.2,0-0.4-0.1-0.4-0.4V19.3c0-0.1,0-0.2,0.1-0.3
					c0.1-0.1,0.2-0.1,0.3-0.1h2.2c0.1,0,0.2,0,0.3,0.1s0.1,0.2,0.1,0.3v10.8C187,30.3,186.8,30.4,186.6,30.4z"/>
				<path class="st2" d="M191.3,30.4h-2.1c-0.3,0-0.4-0.1-0.4-0.4v-5.4v-0.2v-5.2c0-0.1,0-0.2,0.1-0.3c0.1-0.1,0.2-0.1,0.3-0.1h2.1
					c0.1,0,0.2,0,0.3,0.1s0.1,0.2,0.1,0.3v0.3c0.9-0.5,1.8-0.7,2.9-0.7c0.8,0,1.6,0.2,2.3,0.5s1.3,0.7,1.8,1.2s0.9,1.2,1.2,1.9
					c0.3,0.7,0.5,1.5,0.5,2.3v5.4c0,0.2,0,0.3-0.1,0.3s-0.2,0.1-0.3,0.1h-2.2c-0.2,0-0.3-0.1-0.4-0.3v-5.5c0-0.4-0.1-0.8-0.2-1.1
					c-0.2-0.4-0.4-0.7-0.6-0.9c-0.3-0.3-0.6-0.5-0.9-0.6c-0.4-0.2-0.7-0.2-1.1-0.2c-0.4,0-0.7,0.1-1.1,0.2c-0.3,0.2-0.6,0.4-0.9,0.6
					c-0.3,0.3-0.5,0.6-0.6,0.9c-0.2,0.4-0.2,0.7-0.2,1.1v5.5C191.7,30.3,191.5,30.4,191.3,30.4z"/>
				<path class="st2" d="M211.4,28.6c-0.5,0.6-1.2,1-1.9,1.4c-0.7,0.3-1.5,0.5-2.4,0.5c-0.8,0-1.5-0.2-2.2-0.5s-1.3-0.7-1.8-1.2
					s-0.9-1.1-1.2-1.8c-0.3-0.7-0.5-1.5-0.5-2.3s0.1-1.6,0.4-2.3c0.3-0.7,0.6-1.3,1.1-1.9c0.5-0.5,1-0.9,1.7-1.2
					c0.7-0.3,1.4-0.5,2.2-0.5c1.2,0,2.3,0.3,3.2,1s1.5,1.6,1.9,2.7c0.1,0.3,0.2,0.8,0.3,1.2c0.1,0.5,0.1,1.1,0,1.8
					c0,0.1,0,0.2-0.1,0.3c-0.1,0.1-0.2,0.1-0.3,0.1h-7.2c0.2,0.5,0.6,0.9,1,1.2c0.5,0.3,1,0.5,1.5,0.5c0.7,0,1.3-0.2,1.8-0.6
					l0.4-0.4c0.2-0.2,0.3-0.2,0.5,0l1.6,1.5C211.5,28.2,211.5,28.4,211.4,28.6z M206.8,21.7c-0.6,0-1,0.1-1.4,0.4s-0.7,0.7-0.8,1.1
					h4.5c-0.2-0.5-0.5-0.9-0.9-1.1C207.7,21.9,207.3,21.7,206.8,21.7z"/>
			</g>
			<g>
				<path class="st1" d="M58.8,40.5c1.3,0,1.9,0.8,1.9,2.1v4.2c0,1.3-0.6,2.1-1.9,2.1h-2v-8.4H58.8z M58.7,48c0.7,0,1-0.4,1-1.2
					v-4.3c0-0.8-0.3-1.2-1-1.2h-1V48H58.7z"/>
				<path class="st1" d="M64.5,44.2V45h-2v3H65v0.9h-3.4v-8.4H65v0.9h-2.5v2.9h2V44.2z"/>
				<path class="st1" d="M65.8,48.9v-8.4h0.9V48h2.5v0.9H65.8z"/>
				<path class="st1" d="M70.8,40.5v8.4h-0.9v-8.4H70.8z"/>
				<path class="st1" d="M72.5,40.5l1.4,7.3l1.4-7.3h0.9l-1.6,8.4h-1.4l-1.6-8.4H72.5z"/>
				<path class="st1" d="M79.8,44.2V45h-2v3h2.4v0.9h-3.4v-8.4h3.4v0.9h-2.5v2.9h2.1V44.2z"/>
				<path class="st1" d="M83,40.5c1.3,0,1.9,0.7,1.9,1.9v0.7c0,0.9-0.3,1.5-1,1.7c0.8,0.2,1.1,0.9,1.1,1.7v1.3c0,0.4,0,0.7,0.2,1
					h-0.9c-0.1-0.2-0.2-0.5-0.2-1v-1.3c0-0.9-0.4-1.2-1.2-1.2h-0.7v3.6h-0.9v-8.4H83z M82.7,44.5c0.7,0,1.2-0.2,1.2-1.2v-0.8
					c0-0.8-0.3-1.2-1-1.2H82v3.1h0.7V44.5z"/>
				<path class="st1" d="M87.2,45.9l-1.8-5.4h1l1.3,4.1l1.3-4.1h0.9l-1.8,5.4v3h-0.9V45.9z"/>
				<path class="st1" d="M92.3,42.5c0-1.3,0.6-2.1,1.9-2.1s1.9,0.8,1.9,2.1v4.3c0,1.3-0.6,2.1-1.9,2.1s-1.9-0.8-1.9-2.1V42.5z
					 M93.3,46.9c0,0.8,0.3,1.2,1,1.2s1-0.4,1-1.2v-4.4c0-0.8-0.3-1.2-1-1.2s-1,0.5-1,1.2V46.9z"/>
				<path class="st1" d="M98.9,40.5c1.3,0,1.9,0.7,1.9,1.9v0.7c0,0.9-0.3,1.5-1,1.7c0.8,0.2,1.1,0.9,1.1,1.7v1.3c0,0.4,0,0.7,0.2,1
					h-0.9c-0.1-0.2-0.2-0.5-0.2-1v-1.3c0-0.9-0.4-1.2-1.2-1.2h-0.7v3.6h-0.9v-8.4H98.9z M98.7,44.5c0.7,0,1.2-0.2,1.2-1.2v-0.8
					c0-0.8-0.3-1.2-1-1.2H98v3.1h0.7V44.5z"/>
				<path class="st1" d="M105.5,42.5v0.7h-0.9v-0.8c0-0.8-0.3-1.2-1-1.2s-1,0.5-1,1.2v4.4c0,0.8,0.3,1.2,1,1.2s1-0.5,1-1.2v-1.7
					h-0.9v-0.8h1.7v2.5c0,1.3-0.6,2.1-1.9,2.1s-1.9-0.8-1.9-2.1v-4.3c0-1.3,0.6-2.1,1.9-2.1C104.9,40.4,105.5,41.3,105.5,42.5z"/>
				<path class="st1" d="M107.3,47.2l-0.3,1.7h-0.9l1.6-8.4h1.4l1.6,8.4h-0.9l-0.3-1.7H107.3z M107.4,46.4h1.9l-0.9-4.8L107.4,46.4z
					 M109.5,38.8l-1.1,1.2h-0.7l0.8-1.2H109.5z"/>
				<path class="st1" d="M112.3,48.9h-0.8v-8.4h1.2l1.9,6.1v-6.1h0.8v8.4h-1l-2.1-6.8V48.9z"/>
				<path class="st1" d="M117.3,40.5v8.4h-0.9v-8.4H117.3z"/>
				<path class="st1" d="M121.9,42.5v0.8H121v-0.8c0-0.8-0.3-1.2-1-1.2s-1,0.5-1,1.2v4.4c0,0.8,0.3,1.2,1,1.2s1-0.5,1-1.2v-1.1h0.9
					v1c0,1.3-0.6,2.1-1.9,2.1c-1.3,0-1.9-0.8-1.9-2.1v-4.3c0-1.3,0.6-2.1,1.9-2.1C121.3,40.4,121.9,41.3,121.9,42.5z"/>
				<path class="st1" d="M122.7,42.5c0-1.3,0.6-2.1,1.9-2.1c1.3,0,1.9,0.8,1.9,2.1v4.3c0,1.3-0.6,2.1-1.9,2.1
					c-1.3,0-1.9-0.8-1.9-2.1V42.5z M123.6,46.9c0,0.8,0.3,1.2,1,1.2s1-0.4,1-1.2v-4.4c0-0.8-0.3-1.2-1-1.2s-1,0.5-1,1.2V46.9z"/>
				<path class="st1" d="M131.3,40.5c1.3,0,1.9,0.8,1.9,2.1v4.2c0,1.3-0.6,2.1-1.9,2.1h-2v-8.4H131.3z M131.2,48c0.7,0,1-0.4,1-1.2
					v-4.3c0-0.8-0.3-1.2-1-1.2h-1V48H131.2z"/>
				<path class="st1" d="M137,44.2V45h-2v3h2.5v0.9h-3.4v-8.4h3.4v0.9H135v2.9h2V44.2z"/>
				<path class="st1" d="M138.3,48.9v-8.4h0.9V48h2.4v0.9H138.3z"/>
				<path class="st1" d="M145.2,45.1v3.8h-1v-8.4h0.9v3.8h2.1v-3.8h0.9v8.4h-0.9v-3.8C147.2,45.1,145.2,45.1,145.2,45.1z"/>
				<path class="st1" d="M150,46.9c0,0.8,0.3,1.2,1,1.2s1-0.5,1-1.2v-6.4h0.9v6.4c0,1.3-0.6,2.1-1.9,2.1c-1.3,0-1.9-0.9-1.9-2.1
					v-6.4h0.9V46.9z"/>
				<path class="st1" d="M156.7,44.2V45h-2v3h2.5v0.9h-3.4v-8.4h3.4v0.9h-2.5v2.9h2V44.2z"/>
				<path class="st1" d="M159.9,40.5c1.3,0,1.9,0.7,1.9,1.9v0.7c0,0.9-0.3,1.5-1,1.7c0.8,0.2,1.1,0.9,1.1,1.7v1.3c0,0.4,0,0.7,0.2,1
					h-0.9c-0.1-0.2-0.2-0.5-0.2-1v-1.3c0-0.9-0.4-1.2-1.2-1.2h-0.7v3.6h-0.9v-8.4H159.9z M159.7,44.5c0.7,0,1.2-0.2,1.2-1.2v-0.8
					c0-0.8-0.3-1.2-1-1.2H159v3.1h0.7V44.5z"/>
				<path class="st1" d="M164,48.9v-7.5h-1.5v-0.9h4v0.9H165v7.5H164z"/>
				<path class="st1" d="M167,42.5c0-1.3,0.6-2.1,1.9-2.1c1.3,0,1.9,0.8,1.9,2.1v4.3c0,1.3-0.6,2.1-1.9,2.1c-1.3,0-1.9-0.8-1.9-2.1
					V42.5z M168,46.9c0,0.8,0.3,1.2,1,1.2s1-0.4,1-1.2v-4.4c0-0.8-0.3-1.2-1-1.2s-1,0.5-1,1.2V46.9z"/>
				<path class="st1" d="M174.6,47.2l-0.3,1.7h-0.9l1.6-8.4h1.4l1.6,8.4h-0.9l-0.3-1.7H174.6z M174.7,46.4h1.9l-0.9-4.8L174.7,46.4z
					"/>
				<path class="st1" d="M181.7,48.9v-7.5h-1.5v-0.9h4v0.9h-1.5v7.5H181.7z"/>
				<path class="st1" d="M185.7,46.9c0,0.8,0.3,1.2,1,1.2s1-0.5,1-1.2v-6.4h0.9v6.4c0,1.3-0.6,2.1-1.9,2.1c-1.3,0-1.9-0.9-1.9-2.1
					v-6.4h0.9V46.9z"/>
				<path class="st1" d="M192.3,45.1v3.8h-0.9v-8.4h0.9v3.8h2.1v-3.8h0.9v8.4h-0.9v-3.8C194.4,45.1,192.3,45.1,192.3,45.1z"/>
				<path class="st1" d="M196.2,42.5c0-1.3,0.6-2.1,1.9-2.1c1.3,0,1.9,0.8,1.9,2.1v4.3c0,1.3-0.6,2.1-1.9,2.1
					c-1.3,0-1.9-0.8-1.9-2.1V42.5z M197.1,46.9c0,0.8,0.3,1.2,1,1.2s1-0.4,1-1.2v-4.4c0-0.8-0.3-1.2-1-1.2s-1,0.5-1,1.2V46.9z"/>
				<path class="st1" d="M204.6,42.5v0.7h-0.9v-0.8c0-0.8-0.3-1.2-1-1.2s-1,0.5-1,1.2v4.4c0,0.8,0.3,1.2,1,1.2s1-0.5,1-1.2v-1.7
					h-0.9v-0.8h1.7v2.5c0,1.3-0.6,2.1-1.9,2.1c-1.3,0-1.9-0.8-1.9-2.1v-4.3c0-1.3,0.6-2.1,1.9-2.1C204,40.4,204.6,41.3,204.6,42.5z"
					/>
				<path class="st1" d="M206.4,47.2l-0.3,1.7h-0.9l1.6-8.4h1.4l1.6,8.4h-0.9l-0.3-1.7H206.4z M206.5,46.4h1.9l-0.9-4.8L206.5,46.4z
					"/>
				<path class="st1" d="M212.4,40.5c1.3,0,1.9,0.7,1.9,1.9v0.7c0,0.9-0.3,1.5-1,1.7c0.8,0.2,1.1,0.9,1.1,1.7v1.3c0,0.4,0,0.7,0.2,1
					h-0.9c-0.1-0.2-0.2-0.5-0.2-1v-1.3c0-0.9-0.4-1.2-1.2-1.2h-0.7v3.6h-0.9v-8.4H212.4z M212.1,44.5c0.7,0,1.2-0.2,1.2-1.2v-0.8
					c0-0.8-0.3-1.2-1-1.2h-0.9v3.1h0.7V44.5z"/>
			</g>
		</g>
	</g>
</g>
</svg>
